<svg width="44" height="43" fill="#000000" xmlns="http://www.w3.org/2000/svg" xmlns:xlink="http://www.w3.org/1999/xlink" xml:space="preserve" overflow="hidden"><g transform="translate(-21 -421)"><path d="M32.6979 7.60473 28.2188 7.60473 28.2188 11.5769 21.5 5.19583 2.94147 22.8249 5.848 25.731 8.0625 23.6339 8.0625 38.0622 19.2604 38.0666 19.2604 26.8723 23.7396 26.8723 23.7396 38.0702 34.9375 38.0729 34.9375 23.6151 37.1632 25.7203 40.0585 22.8254 32.6979 15.8321ZM29.1146 8.50056 31.8021 8.50056 31.8021 14.981 29.1146 12.4279ZM34.0417 37.1771 24.6354 37.173 24.6354 25.9751 18.3646 25.9751 18.3646 37.1704 8.95833 37.1668 8.95833 22.7855 21.5 10.9086 34.0417 22.7681ZM5.86457 24.4813 4.2252 22.8438 21.5 6.43029 38.7748 22.8438 37.1457 24.4706 21.5 9.675Z" transform="matrix(1.02326 0 0 1 21 421)"/><path d="M10.75 31.3443 16.125 31.3443 16.125 25.9693 10.75 25.9693ZM11.6458 26.8651 15.2292 26.8651 15.2292 30.4485 11.6458 30.4485Z" transform="matrix(1.02326 0 0 1 21 421)"/><path d="M32.25 25.9693 26.875 25.9693 26.875 31.3443 32.25 31.3443ZM31.3542 30.4485 27.7708 30.4485 27.7708 26.8651 31.3542 26.8651Z" transform="matrix(1.02326 0 0 1 21 421)"/></g></svg>