<svg width="61" height="61" xmlns="http://www.w3.org/2000/svg" xmlns:xlink="http://www.w3.org/1999/xlink" xml:space="preserve" overflow="hidden"><g transform="translate(-308 -214)"><path d="M361.375 230.525 355.738 230.525 355.738 230.521 354.467 230.521 354.467 230.525 346.207 230.525 346.207 227.979C346.205 226.225 344.784 224.804 343.03 224.802L334.134 224.802C332.38 224.804 330.959 226.225 330.957 227.979L330.957 230.525 322.697 230.525 322.697 230.521 321.426 230.521 321.426 230.525 315.625 230.525C314.223 230.53 313.088 231.665 313.083 233.067L313.083 263.576C313.088 264.978 314.223 266.114 315.625 266.118L361.375 266.118C362.777 266.114 363.912 264.978 363.917 263.576L363.917 233.068C363.912 231.665 362.777 230.53 361.375 230.525ZM332.228 227.979C332.228 226.926 333.081 226.073 334.134 226.073L343.03 226.073C344.083 226.073 344.936 226.926 344.936 227.979L344.936 230.521 332.228 230.521ZM354.467 231.796 354.467 264.848 322.697 264.848 322.697 231.796ZM314.354 263.576 314.354 233.068C314.354 232.366 314.923 231.797 315.625 231.797L321.428 231.797 321.428 264.848 315.625 264.848C314.923 264.848 314.354 264.279 314.354 263.577 314.354 263.577 314.354 263.577 314.354 263.576ZM362.646 263.576C362.646 264.278 362.077 264.847 361.375 264.847L355.738 264.847 355.738 231.796 361.375 231.796C362.077 231.796 362.646 232.365 362.646 233.067Z"/></g></svg>