<svg width="46" height="46" xmlns="http://www.w3.org/2000/svg" xmlns:xlink="http://www.w3.org/1999/xlink" xml:space="preserve" overflow="hidden"><g transform="translate(-21 -642)"><path d="M53.5833 649.188C53.5833 648.923 53.3688 648.708 53.1042 648.708 52.8395 648.708 52.625 648.923 52.625 649.188L52.625 651.583 35.375 651.583 35.375 649.188C35.375 648.923 35.1605 648.708 34.8958 648.708 34.6312 648.708 34.4167 648.923 34.4167 649.188L34.4167 651.583 27.7083 651.583 27.7083 681.292 60.2917 681.292 60.2917 651.583 53.5833 651.583ZM59.3333 680.333 28.6667 680.333 28.6667 659.729 59.3333 659.729ZM59.3333 652.542 59.3333 658.771 28.6667 658.771 28.6667 652.542 34.4167 652.542 34.4167 654.458C34.4167 654.723 34.6312 654.938 34.8958 654.938 35.1605 654.938 35.375 654.723 35.375 654.458L35.375 652.542 52.625 652.542 52.625 654.458C52.625 654.723 52.8395 654.938 53.1042 654.938 53.3688 654.938 53.5833 654.723 53.5833 654.458L53.5833 652.542Z"/></g></svg>