<svg width="56" height="56" fill="#000000" xmlns="http://www.w3.org/2000/svg" xmlns:xlink="http://www.w3.org/1999/xlink" xml:space="preserve" overflow="hidden"><g transform="translate(-308 -498)"><path d="M338.042 507.625C338.054 506.515 337.168 505.603 336.058 505.583L336 505.583C334.872 505.583 333.958 506.497 333.958 507.625 333.958 508.753 334.872 509.667 336 509.667 337.128 509.667 338.042 508.753 338.042 507.625ZM336.875 507.616C336.88 508.099 336.493 508.495 336.009 508.5 335.526 508.505 335.13 508.118 335.125 507.634 335.12 507.151 335.508 506.755 335.991 506.75 335.994 506.75 335.997 506.75 336 506.75L336.038 506.75C336.508 506.759 336.882 507.146 336.875 507.616Z"/><path d="M324.917 519 347.667 519 347.667 520.167 324.917 520.167Z"/><path d="M336 523.667 347.667 523.667 347.667 524.833 336 524.833Z"/><path d="M324.333 535.917 333.667 535.917 333.667 537.083 324.333 537.083Z"/><path d="M345.467 542.603 347.868 542.978 345.213 537.97C345.372 537.9 345.518 537.801 345.641 537.678 345.891 537.427 346.038 537.092 346.054 536.739 346.384 536.597 346.646 536.335 346.788 536.005 346.947 535.64 346.947 535.224 346.788 534.859 347.077 534.586 347.24 534.206 347.238 533.808 347.234 533.454 347.101 533.113 346.863 532.85 346.995 532.518 346.995 532.148 346.863 531.816 346.724 531.442 346.429 531.146 346.054 531.007 346.078 530.607 345.927 530.216 345.641 529.936 345.39 529.687 345.055 529.539 344.702 529.522 344.56 529.193 344.298 528.93 343.968 528.789 343.791 528.71 343.599 528.669 343.405 528.669 343.205 528.67 343.007 528.711 342.822 528.789 342.55 528.497 342.168 528.332 341.769 528.333 341.414 528.338 341.074 528.471 340.811 528.71 340.649 528.644 340.476 528.61 340.301 528.61 340.121 528.611 339.943 528.644 339.776 528.71 339.402 528.848 339.106 529.143 338.967 529.518 338.943 529.518 338.918 529.518 338.894 529.518 338.519 529.515 338.159 529.665 337.896 529.933 337.647 530.184 337.5 530.519 337.483 530.873 337.153 531.014 336.891 531.277 336.75 531.606 336.59 531.972 336.59 532.388 336.75 532.753 336.179 533.291 336.146 534.186 336.674 534.765 336.543 535.097 336.543 535.467 336.674 535.799 336.814 536.173 337.109 536.468 337.483 536.607 337.453 537.192 337.789 537.735 338.326 537.971L335.669 542.98 338.07 542.605 339.102 544.805 341.768 539.789 344.434 544.805ZM337.793 541.465 339.285 538.652C339.373 538.72 339.469 538.777 339.57 538.823 339.747 538.903 339.939 538.944 340.133 538.944 340.334 538.943 340.532 538.902 340.717 538.823 340.768 538.876 340.824 538.925 340.884 538.969L339.169 542.196 338.756 541.315ZM345.609 535.658 344.929 535.938 344.89 536.675C344.889 536.742 344.862 536.806 344.816 536.855 344.772 536.905 344.707 536.932 344.641 536.928L343.786 536.888 343.473 537.69C343.45 537.748 343.403 537.792 343.344 537.811 343.309 537.826 343.272 537.833 343.235 537.833 343.213 537.834 343.191 537.831 343.17 537.823L342.511 537.55 341.969 538.017C341.917 538.073 341.846 538.107 341.769 538.112 341.694 538.114 341.622 538.085 341.57 538.031L341.017 537.433 340.267 537.75C340.225 537.768 340.181 537.777 340.136 537.778 340.107 537.778 340.078 537.773 340.051 537.761 339.995 537.74 339.948 537.7 339.918 537.647L339.638 536.967 338.904 536.927C338.837 536.926 338.773 536.899 338.725 536.853 338.671 536.805 338.644 536.734 338.652 536.662L338.692 535.808 337.887 535.508C337.829 535.486 337.785 535.438 337.766 535.379 337.741 535.324 337.737 535.262 337.755 535.204L338.038 534.516 337.533 533.969C337.491 533.923 337.467 533.863 337.466 533.801 337.464 533.726 337.493 533.654 337.547 533.601L338.142 533.046 337.826 532.3C337.794 532.232 337.79 532.155 337.815 532.084 337.836 532.028 337.876 531.981 337.928 531.951L338.608 531.671 338.649 530.937C338.65 530.87 338.676 530.806 338.722 530.758 338.766 530.708 338.831 530.68 338.897 530.684L339.752 530.724 340.066 529.922C340.088 529.864 340.136 529.82 340.195 529.8 340.229 529.786 340.266 529.779 340.303 529.778 340.326 529.777 340.348 529.781 340.369 529.789L341.03 530.062 341.573 529.595C341.623 529.539 341.694 529.505 341.769 529.5 341.844 529.498 341.916 529.527 341.969 529.581L342.524 530.175 343.275 529.86C343.316 529.842 343.36 529.832 343.405 529.831 343.434 529.831 343.463 529.837 343.489 529.848 343.547 529.87 343.594 529.911 343.622 529.965L343.902 530.645 344.637 530.685C344.704 530.687 344.768 530.713 344.816 530.759 344.869 530.807 344.897 530.878 344.889 530.95L344.849 531.805 345.651 532.101C345.709 532.123 345.754 532.17 345.773 532.229 345.797 532.285 345.801 532.347 345.784 532.404L345.512 533.065 345.979 533.608C346.035 533.659 346.069 533.731 346.074 533.807 346.076 533.882 346.047 533.955 345.993 534.007L345.399 534.563 345.714 535.313C345.746 535.381 345.75 535.458 345.725 535.529 345.704 535.584 345.663 535.63 345.61 535.658ZM345.745 541.465 344.782 541.315 344.369 542.196 342.65 538.958C342.676 538.938 342.704 538.92 342.729 538.899 342.891 538.965 343.064 538.999 343.239 538.998 343.419 538.998 343.597 538.964 343.764 538.899 343.938 538.833 344.097 538.732 344.231 538.603Z"/><path d="M345.021 533.804C345.02 532.008 343.564 530.553 341.768 530.553 339.972 530.554 338.517 532.01 338.518 533.806 338.518 535.602 339.974 537.057 341.769 537.057 343.565 537.055 345.02 535.6 345.021 533.804ZM343.854 533.804C343.853 534.955 342.918 535.888 341.767 535.886 340.615 535.885 339.683 534.951 339.684 533.799 339.686 532.649 340.619 531.717 341.769 531.717 342.921 531.718 343.854 532.652 343.854 533.804Z"/><path d="M351.167 506.738 342.417 506.738 342.417 505.571C342.415 503.961 341.11 502.656 339.5 502.654L332.5 502.654C330.89 502.657 329.586 503.961 329.583 505.571L329.583 506.738 320.833 506.738C319.545 506.738 318.5 507.782 318.5 509.071L318.5 547C318.5 548.289 319.545 549.333 320.833 549.333L351.167 549.333C352.455 549.333 353.5 548.289 353.5 547L353.5 509.071C353.498 507.783 352.455 506.739 351.167 506.738ZM328.417 507.904 330.75 507.904 330.75 505.571C330.75 504.605 331.533 503.821 332.5 503.821L339.5 503.821C340.467 503.821 341.25 504.605 341.25 505.571L341.25 507.904 343.583 507.904 343.583 512.583 328.417 512.583ZM352.333 547C352.333 547.644 351.811 548.167 351.167 548.167L320.833 548.167C320.189 548.167 319.667 547.644 319.667 547L319.667 509.071C319.667 508.427 320.189 507.904 320.833 507.904L327.25 507.904 327.25 513.75 344.75 513.75 344.75 507.904 351.167 507.904C351.811 507.904 352.333 508.427 352.333 509.071Z"/></g></svg>