<svg width="68" height="67" xmlns="http://www.w3.org/2000/svg" xmlns:xlink="http://www.w3.org/1999/xlink" xml:space="preserve" overflow="hidden"><g transform="translate(-308 -701)"><path d="M63.9375 27.7073 33.5042 16.8198 3.07083 27.7073 9.07292 29.8143 9.07292 41.9448C9.07292 42.3303 9.38537 42.6427 9.77083 42.6427 10.1563 42.6427 10.4688 42.3303 10.4688 41.9448L10.4688 30.3035 15.3807 32.0274 15.3807 42.0774C15.3807 46.1672 23.6803 49.6219 33.5042 49.6219 43.3281 49.6219 51.6284 46.1672 51.6284 42.0788L51.6284 32.0274ZM33.5042 18.3029 59.7417 27.6891C59.7521 27.6926 59.7521 27.6982 59.7417 27.7017L33.5042 36.9072 7.2695 27.7017C7.25903 27.6982 7.25903 27.6926 7.2695 27.6891ZM50.2326 42.0788C50.2326 44.9214 42.9254 48.226 33.5042 48.226 24.083 48.226 16.7765 44.9214 16.7765 42.0788L16.7765 32.5173 33.5042 38.3854 50.2326 32.5159Z" transform="matrix(1.01493 0 0 1 308 701)"/></g></svg>