<svg width="68" height="68" xmlns="http://www.w3.org/2000/svg" xmlns:xlink="http://www.w3.org/1999/xlink" xml:space="preserve" overflow="hidden"><g transform="translate(-308 -927)"><path d="M373.424 949.378C372.222 947.079 370.767 944.921 369.085 942.944 368.056 941.753 366.636 940.968 365.08 940.731 366.853 939.822 368.556 939.164 368.581 939.154 368.946 939.014 369.129 938.604 368.988 938.239 368.902 938.015 368.708 937.849 368.473 937.8 366.236 937.337 363.954 937.133 361.671 937.194 359.246 937.256 357.135 938.865 356.432 941.186 356.265 941.774 356.209 942.388 356.266 942.997 356.267 943.006 356.262 943.008 356.255 943.003 355.58 942.443 354.8 942.023 353.961 941.77 351.305 940.974 348.44 942.001 346.897 944.305 345.506 946.468 344.388 948.795 343.568 951.232 343.444 951.603 343.645 952.004 344.016 952.128 344.235 952.201 344.476 952.163 344.662 952.025 346.457 950.717 348.36 949.562 350.349 948.574 349.806 949.616 349.569 950.791 349.666 951.963 349.902 954.306 350.403 956.614 351.16 958.843 351.258 959.129 351.527 959.322 351.83 959.322L351.864 959.321C352.179 959.306 352.446 959.085 352.519 958.778 353.068 956.507 353.852 954.3 354.859 952.191 355.182 951.567 355.543 950.963 355.939 950.382 356.283 949.927 356.686 949.521 357.139 949.174 357.366 949.866 357.554 950.57 357.703 951.283 358.536 955.289 358.766 962.435 358.667 969.228 355.461 971.335 349.329 972.577 342 972.577 334.671 972.577 328.539 971.335 325.333 969.228 325.234 962.435 325.464 955.289 326.297 951.282 326.447 950.57 326.635 949.867 326.861 949.175 327.314 949.521 327.718 949.927 328.062 950.382 328.465 950.976 328.832 951.593 329.162 952.23 330.16 954.327 330.937 956.521 331.481 958.779 331.554 959.085 331.821 959.306 332.136 959.321L332.17 959.322C332.473 959.322 332.742 959.13 332.84 958.843 333.597 956.614 334.098 954.306 334.334 951.963 334.431 950.791 334.194 949.616 333.649 948.573 335.639 949.563 337.542 950.717 339.338 952.025 339.653 952.258 340.096 952.192 340.329 951.878 340.467 951.692 340.505 951.451 340.432 951.232 339.612 948.795 338.494 946.468 337.103 944.305 335.559 942.002 332.695 940.974 330.039 941.77 329.2 942.023 328.42 942.443 327.745 943.003 327.742 943.005 327.738 943.004 327.736 943.001 327.735 943 327.734 942.998 327.734 942.997 327.791 942.388 327.735 941.774 327.568 941.186 326.865 938.865 324.754 937.256 322.33 937.194 320.047 937.133 317.764 937.336 315.528 937.8 315.145 937.88 314.9 938.256 314.98 938.639 315.029 938.874 315.195 939.068 315.419 939.154 315.445 939.164 317.147 939.822 318.92 940.731 317.364 940.968 315.944 941.753 314.915 942.944 313.234 944.921 311.778 947.079 310.576 949.378 310.396 949.726 310.532 950.153 310.879 950.333 311.096 950.446 311.356 950.439 311.566 950.314 313.153 949.391 314.794 948.565 316.48 947.839 316.179 948.413 315.966 949.029 315.846 949.665 315.52 951.804 315.429 953.971 315.576 956.13 315.604 956.52 315.943 956.813 316.333 956.785 316.579 956.768 316.798 956.623 316.912 956.404 317.881 954.528 319.039 952.755 320.366 951.113 320.867 950.54 321.413 950.006 321.997 949.518 322.422 949.195 322.895 948.94 323.398 948.763 323.198 949.385 322.977 950.141 322.785 950.967 322.105 954.161 321.649 960.079 321.345 966.222 321.187 966.244 321.041 966.32 320.932 966.436 320.67 966.727 320.693 967.175 320.984 967.437L321.275 967.699C320.992 973.926 320.857 980.182 320.797 983.892 320.785 984.672 321.408 985.315 322.189 985.327 322.197 985.327 322.206 985.327 322.214 985.327L324.742 985.327C325.522 985.329 326.157 984.698 326.159 983.917 326.159 983.856 326.155 983.795 326.147 983.734 325.808 981.112 325.521 976.709 325.389 971.875 325.917 972.508 326.43 973.154 326.912 973.827 330.164 978.367 335.803 981.077 342 981.077 348.197 981.077 353.836 978.367 357.088 973.827 357.57 973.154 358.083 972.508 358.611 971.875 358.479 976.708 358.192 981.113 357.853 983.734 357.754 984.508 358.301 985.216 359.075 985.316 359.136 985.323 359.197 985.327 359.258 985.327L361.786 985.327C362.567 985.329 363.201 984.697 363.203 983.917 363.203 983.908 363.203 983.9 363.203 983.891 363.143 980.182 363.009 973.927 362.725 967.699L363.015 967.437C363.306 967.175 363.33 966.727 363.068 966.436 363.068 966.436 363.068 966.436 363.068 966.436 362.959 966.32 362.813 966.244 362.655 966.222 362.35 960.076 361.893 954.155 361.211 950.955 361.021 950.133 360.801 949.381 360.601 948.76 361.105 948.939 361.578 949.195 362.003 949.518 362.587 950.007 363.133 950.54 363.634 951.114 364.961 952.756 366.119 954.529 367.088 956.404 367.268 956.752 367.695 956.888 368.043 956.708 368.262 956.595 368.406 956.376 368.424 956.13 368.571 953.972 368.48 951.804 368.154 949.666 368.035 949.029 367.821 948.413 367.52 947.839 369.206 948.565 370.847 949.391 372.434 950.314 372.771 950.514 373.205 950.402 373.404 950.066 373.529 949.856 373.536 949.596 373.424 949.379ZM343.496 979.596 342.497 978.598 344.125 976.97 345.399 978.244 344.095 979.548C343.897 979.569 343.696 979.581 343.496 979.596ZM333.538 973.391C334.293 973.508 335.079 973.607 335.888 973.691L336.19 973.994 334.562 975.622 332.935 973.994ZM348.205 973.681C348.895 973.608 349.566 973.523 350.217 973.425L349.083 974.559ZM348.232 975.411 346.25 977.392 344.976 976.119 346.958 974.137ZM344.125 975.268 342.851 973.994 342.861 973.984C343.761 973.972 344.64 973.943 345.497 973.896ZM343.274 976.119 341.646 977.747 340.372 976.473 342 974.845ZM341.149 973.994 339.521 975.622 337.893 973.994 338.019 973.867C339.027 973.931 340.067 973.97 341.139 973.984ZM338.67 976.473 337.042 978.101 335.414 976.473 337.042 974.845ZM333.712 976.473 332.882 977.302C332.203 976.913 331.553 976.474 330.939 975.99L332.083 974.845ZM334.562 977.324 335.886 978.648C335.898 978.66 335.895 978.665 335.878 978.659 335.236 978.441 334.607 978.184 333.994 977.892ZM337.893 978.952 339.521 977.324 340.795 978.598 339.851 979.542C339.3 979.481 338.759 979.391 338.225 979.285ZM341.646 979.449 341.853 979.656C341.718 979.655 341.584 979.649 341.449 979.645ZM347.101 978.244 349.083 976.262 350.473 977.652C349.571 978.117 348.63 978.502 347.661 978.804ZM349.935 975.41 351.917 973.428 353.831 975.342C353.127 975.975 352.368 976.543 351.563 977.039ZM321.114 948.41C320.469 948.946 319.868 949.533 319.315 950.164 318.429 951.197 317.636 952.305 316.944 953.477 316.942 953.48 316.937 953.481 316.934 953.479 316.932 953.478 316.931 953.475 316.931 953.473 316.932 952.287 317.034 951.104 317.236 949.936 317.408 948.613 318.224 947.461 319.415 946.859 319.768 946.691 319.918 946.268 319.75 945.915 319.604 945.609 319.263 945.45 318.935 945.533 318.679 945.598 318.42 945.667 318.157 945.74 316.406 946.289 314.71 947 313.091 947.864 313.078 947.87 313.074 947.866 313.082 947.854 313.916 946.452 314.878 945.131 315.955 943.906 318.205 941.474 320.57 942.053 321.483 942.414 321.744 942.522 321.991 942.662 322.217 942.832 322.528 943.068 322.973 943.008 323.209 942.696 323.445 942.384 323.385 941.94 323.073 941.703 322.811 941.497 322.542 941.289 322.26 941.083 320.985 940.202 319.631 939.441 318.216 938.811 318.203 938.805 318.204 938.799 318.218 938.797 319.547 938.61 320.89 938.547 322.231 938.607 324.071 938.62 325.686 939.833 326.212 941.596 326.616 942.933 325.939 944.66 325.721 945.157 325.565 945.516 325.729 945.933 326.088 946.089 326.388 946.22 326.738 946.128 326.935 945.868 327.333 945.342 328.758 943.592 330.416 943.135 332.497 942.502 334.747 943.312 335.948 945.125 336.877 946.519 337.658 948.007 338.279 949.563 338.283 949.575 338.279 949.578 338.268 949.572 336.656 948.486 334.94 947.565 333.144 946.823 332.43 946.553 331.664 946.296 330.868 946.06 330.514 945.958 330.143 946.151 330.022 946.499 329.9 946.855 330.07 947.246 330.415 947.399 332.143 948.182 333.159 949.999 332.92 951.881 332.804 953.279 332.561 954.664 332.193 956.017 332.19 956.031 332.184 956.031 332.179 956.018 331.721 954.464 331.12 952.956 330.384 951.513 330.035 950.84 329.645 950.189 329.217 949.563 328.472 948.51 326.679 947.002 325.454 946.939 325.407 946.937 325.357 946.936 325.305 946.936 323.793 947 322.334 947.513 321.114 948.41ZM324.168 951.275C324.4 950.292 324.686 949.322 325.025 948.37 325.143 948.357 325.263 948.352 325.382 948.354 325.464 948.361 325.545 948.38 325.623 948.411 325.331 949.256 325.092 950.119 324.909 950.994 324.103 954.875 323.849 961.63 323.91 968.209 323.636 967.945 323.365 967.675 323.083 967.421L322.726 967.1C323.025 960.784 323.48 954.505 324.168 951.275ZM324.742 983.91 322.214 983.914C322.259 981.098 322.378 975.154 322.643 968.957 323.086 969.374 323.518 969.804 323.939 970.247 324.044 975.784 324.36 980.964 324.742 983.91ZM328.064 973.002C327.752 972.568 327.427 972.144 327.097 971.725 327.088 971.714 327.091 971.709 327.105 971.714 328.006 972.075 328.928 972.38 329.867 972.628L331.232 973.994 330.017 975.209C329.293 974.542 328.638 973.802 328.064 973.002ZM354.696 974.505 353.08 972.888C354.38 972.598 355.656 972.206 356.895 971.715 356.908 971.709 356.911 971.714 356.902 971.726 356.572 972.145 356.247 972.568 355.936 973.002 355.557 973.531 355.143 974.033 354.696 974.505ZM359.259 983.916C359.64 980.967 359.956 975.784 360.061 970.247 360.482 969.804 360.914 969.374 361.357 968.957 361.622 975.154 361.741 981.097 361.786 983.91ZM359.829 951.262C360.518 954.498 360.974 960.782 361.274 967.099L360.917 967.421C360.635 967.675 360.364 967.944 360.09 968.208 360.151 961.629 359.897 954.875 359.091 950.994 358.907 950.119 358.669 949.256 358.377 948.41 358.454 948.38 358.535 948.361 358.617 948.354 358.737 948.351 358.856 948.356 358.975 948.369 359.312 949.317 359.597 950.283 359.829 951.262ZM365.842 945.74C365.58 945.667 365.321 945.599 365.065 945.533 364.686 945.437 364.3 945.665 364.203 946.044 364.12 946.372 364.279 946.714 364.585 946.859 365.776 947.461 366.592 948.613 366.764 949.936 366.966 951.104 367.068 952.287 367.069 953.473 367.069 953.487 367.064 953.489 367.056 953.477 366.365 952.305 365.571 951.197 364.685 950.164 364.133 949.533 363.531 948.946 362.886 948.41 361.628 947.478 360.11 946.964 358.545 946.94 357.32 947.003 355.528 948.51 354.783 949.563 354.347 950.202 353.95 950.866 353.594 951.552 352.866 952.983 352.272 954.477 351.819 956.017 351.815 956.03 351.81 956.029 351.806 956.017 351.438 954.663 351.195 953.279 351.08 951.882 350.84 950.014 351.839 948.207 353.547 947.415 353.571 947.407 353.613 947.39 353.636 947.379 353.989 947.212 354.141 946.79 353.974 946.437 353.824 946.12 353.467 945.96 353.131 946.06 352.336 946.297 351.57 946.553 350.856 946.823 349.06 947.566 347.343 948.487 345.731 949.572 345.727 949.574 345.723 949.573 345.721 949.57 345.72 949.568 345.72 949.566 345.72 949.564 346.341 948.007 347.123 946.52 348.052 945.125 349.253 943.312 351.503 942.503 353.584 943.136 355.242 943.593 356.667 945.343 357.065 945.868 357.301 946.18 357.745 946.241 358.057 946.005 358.318 945.807 358.409 945.457 358.279 945.157 358.061 944.66 357.384 942.933 357.788 941.596 358.314 939.833 359.929 938.62 361.769 938.608 363.11 938.547 364.453 938.611 365.782 938.798 365.795 938.8 365.796 938.806 365.784 938.812 364.368 939.442 363.015 940.203 361.74 941.083 361.458 941.29 361.189 941.497 360.927 941.704 360.615 941.94 360.555 942.385 360.791 942.696 361.027 943.008 361.472 943.069 361.783 942.832 362.009 942.663 362.256 942.522 362.517 942.414 363.43 942.054 365.795 941.475 368.045 943.907 369.122 945.131 370.084 946.453 370.918 947.854 370.925 947.866 370.921 947.871 370.909 947.864 369.29 947 367.594 946.289 365.842 945.74Z"/></g></svg>