<svg width="44" height="44" xmlns="http://www.w3.org/2000/svg" xmlns:xlink="http://www.w3.org/1999/xlink" xml:space="preserve" overflow="hidden"><g transform="translate(-21 -493)"><path d="M25.5833 502.625 25.5833 527.375 60.4167 527.375 60.4167 502.625ZM43.9726 518.421C43.4345 518.956 42.5655 518.956 42.0274 518.421L27.1559 503.549C27.1541 503.548 27.1541 503.545 27.1559 503.543 27.1568 503.542 27.1579 503.542 27.1591 503.542L58.8409 503.542C58.8434 503.542 58.8455 503.544 58.8455 503.546 58.8454 503.547 58.845 503.549 58.8441 503.549ZM37.3102 515 26.5078 525.802C26.506 525.804 26.5031 525.804 26.5013 525.802 26.5005 525.802 26.5 525.8 26.5 525.799L26.5 504.201C26.5 504.198 26.5021 504.196 26.5046 504.196 26.5058 504.196 26.507 504.197 26.5078 504.198ZM37.9583 515.648 41.3793 519.069C42.2742 519.964 43.7252 519.964 44.6203 519.07 44.6204 519.069 44.6205 519.069 44.6207 519.069L48.0417 515.648 58.8441 526.451C58.8459 526.452 58.8459 526.455 58.8441 526.457 58.8432 526.458 58.8421 526.458 58.8409 526.458L27.1591 526.458C27.1566 526.458 27.1545 526.456 27.1545 526.454 27.1546 526.453 27.1551 526.451 27.1559 526.451ZM48.6898 515 59.4922 504.198C59.494 504.196 59.4969 504.196 59.4987 504.198 59.4995 504.198 59.5 504.2 59.5 504.201L59.5 525.799C59.5 525.802 59.4979 525.804 59.4954 525.804 59.4942 525.804 59.493 525.803 59.4922 525.802Z"/></g></svg>