<svg width="36" height="37" xmlns="http://www.w3.org/2000/svg" xmlns:xlink="http://www.w3.org/1999/xlink" xml:space="preserve" overflow="hidden"><g transform="translate(-21 -567)"><path d="M32.5125 26.4825 27.3375 21.3075C26.7064 20.6655 25.6743 20.6567 25.0322 21.2878 25.0256 21.2943 25.019 21.3009 25.0125 21.3075L22.2375 24.195C21.9225 24.495 21.4275 24.495 21.1125 24.195L11.8125 14.9291C11.5123 14.6142 11.5123 14.119 11.8125 13.8041L14.7 10.9541C15.342 10.3224 15.3504 9.28984 14.7187 8.6478 14.7125 8.64154 14.7063 8.63531 14.7 8.62912L9.525 3.4875C9.22808 3.18429 8.82428 3.00932 8.4 3 7.96463 3.00883 7.54894 3.18315 7.2375 3.4875L4.275 6.45C3.52839 7.14022 3.08378 8.09678 3.0375 9.1125 2.98499 10.7796 3.27867 12.4396 3.9 13.9875 4.51695 15.3717 5.27066 16.6908 6.15 17.925 9.20576 22.533 13.0827 26.5398 17.5875 29.7458 18.3376 30.3024 19.1272 30.8037 19.95 31.2458 21.8132 32.2255 23.8528 32.8247 25.95 33.0083 26.0703 33.0175 26.1904 33.0222 26.3104 33.0225 27.6251 33.018 28.8794 32.4696 29.7754 31.5075L32.4754 28.8075C32.7856 28.5 32.961 28.0818 32.9629 27.645 32.9747 27.2128 32.8124 26.7939 32.5125 26.4825ZM7.76663 4.02C7.93762 3.8556 8.16296 3.75953 8.4 3.75 8.62601 3.76069 8.83943 3.85729 8.99662 4.02L14.1716 9.1575C14.5209 9.49616 14.5295 10.0538 14.1908 10.4031 14.1856 10.4085 14.1803 10.4137 14.175 10.419L13.1175 11.4622 6.72113 5.06625ZM29.2463 30.9784 29.2361 30.9885 29.2268 30.9986C28.4736 31.8092 27.4179 32.2709 26.3115 32.2736 26.211 32.2736 26.1097 32.2695 26.0036 32.2612 24.0091 32.086 22.0696 31.5148 20.2984 30.5813 19.5111 30.1579 18.7556 29.6781 18.0375 29.1458L18.0296 29.1398 18.021 29.1338C13.5857 25.9816 9.77006 22.038 6.76575 17.5012 5.91904 16.3148 5.19292 15.0468 4.59825 13.716 4.15875 12.4823 3.675 10.8547 3.7875 9.165L3.7875 9.15375 3.7875 9.14288C3.82755 8.32301 4.18837 7.55175 4.79213 6.99563L4.79925 6.98887 4.806 6.98212 6.19125 5.5965 12.5839 11.9891 11.2826 13.275C10.6889 13.8831 10.6889 14.8539 11.2826 15.462L20.5826 24.7245C21.1947 25.3215 22.1726 25.3168 22.779 24.714L24.0184 23.424 30.4095 29.8147ZM31.9463 28.2784 30.9397 29.2853 24.5381 22.8832 25.5442 21.8363C25.8822 21.4872 26.4392 21.4782 26.7882 21.8161 26.7951 21.8227 26.8018 21.8294 26.8084 21.8363L31.9834 27.0112C32.3046 27.3774 32.2882 27.9296 31.9459 28.2761Z" transform="matrix(1 0 0 1.02778 21 567)"/></g></svg>